<?xml version="1.0" encoding="UTF-8"?>
<!-- Do not edit this file with editors other than draw.io -->
<!DOCTYPE svg PUBLIC "-//W3C//DTD SVG 1.1//EN" "http://www.w3.org/Graphics/SVG/1.1/DTD/svg11.dtd">
<svg xmlns="http://www.w3.org/2000/svg" style="background: #ffffff; background-color: light-dark(#ffffff, var(--ge-dark-color, #121212)); color-scheme: light dark;" xmlns:xlink="http://www.w3.org/1999/xlink" version="1.1" width="111px" height="108px" viewBox="0 0 111 108" content="&lt;mxfile host=&quot;app.diagrams.net&quot; agent=&quot;Mozilla/5.0 (Windows NT 10.0; Win64; x64) AppleWebKit/537.36 (KHTML, like Gecko) Chrome/146.0.0.0 Safari/537.36 Edg/146.0.0.0&quot; version=&quot;29.4.0&quot; scale=&quot;1&quot; border=&quot;0&quot;&gt;&#10;  &lt;diagram name=&quot;Page-1&quot; id=&quot;n4aBMdoHf9lDSVxvN1Vn&quot;&gt;&#10;    &lt;mxGraphModel dx=&quot;864&quot; dy=&quot;468&quot; grid=&quot;1&quot; gridSize=&quot;10&quot; guides=&quot;1&quot; tooltips=&quot;1&quot; connect=&quot;1&quot; arrows=&quot;1&quot; fold=&quot;1&quot; page=&quot;1&quot; pageScale=&quot;1&quot; pageWidth=&quot;850&quot; pageHeight=&quot;1100&quot; math=&quot;0&quot; shadow=&quot;0&quot;&gt;&#10;      &lt;root&gt;&#10;        &lt;mxCell id=&quot;0&quot; /&gt;&#10;        &lt;mxCell id=&quot;1&quot; parent=&quot;0&quot; /&gt;&#10;        &lt;mxCell id=&quot;f3dQCy5U1U9z46hcYQQV-1&quot; parent=&quot;1&quot; style=&quot;rounded=1;whiteSpace=wrap;html=1;&quot; value=&quot;&quot; vertex=&quot;1&quot;&gt;&#10;          &lt;mxGeometry height=&quot;70&quot; width=&quot;70&quot; x=&quot;170&quot; y=&quot;100&quot; as=&quot;geometry&quot; /&gt;&#10;        &lt;/mxCell&gt;&#10;        &lt;mxCell id=&quot;f3dQCy5U1U9z46hcYQQV-16&quot; parent=&quot;1&quot; style=&quot;shape=stencil(fZbdcgIhDIWfZm8zQAg/17Z9j85U606tdqz9e/tmZ0c0uJ47xP0I5JwEBl59bp8/1kNwn6fj4W39M76ctgM/DCGM++36OJ50NPDjwKvN4bh+PR6+9i/z74/n6ctp9H74nlb4nbmSKZeJCu5vngmZ6jzzNAO7cX8FVKEsBuBKrgKg9oAE8gkCbLeUhEoEQKSUDZDLeWYRKIl8MEDRmHwfyBrBG6Amyu4+kDxxMoB3jhwgYu7TVAsVkFcWCs4CTBEoF4RctKeOxHIf8IXYpikHikAIf+MNUW94AGSSaoAoFIE3AlOyeWU+p2E5S9yfQZcQILVuQOwZdJNoS9Ls3wA5u2XZTIHECqeJ9kDpSaauRiNVcAY1QhdBzeLBli5WazpkSsBLV25uRaqWRyFawTQzRRIQYirJzq5atkBqLfouwqUxLBepthWb10vrWZY6UOAeyKCCtDV625mm9gmUC4Wc3VLJMMIE1BsA2FW9JraVlQB7n3c9oMKhCLEvIM1zBPZ25/umNQ1tVEC2G+fFCC8g398O2hNQuQlVu752DBfA+q0ptnqO5JFmeuIuo9DY7KjY71UxdJV4EntifPWorW++R/dC4t7V3DlIB5cHx2bc7eb3yvX//QNFp+bHDT/+Aw==);lineShape=1;strokeColor=default;&quot; value=&quot;&quot; vertex=&quot;1&quot;&gt;&#10;          &lt;mxGeometry height=&quot;4.665236216357698&quot; width=&quot;4.672539772115442&quot; x=&quot;181.86796084247567&quot; y=&quot;117.87531245851915&quot; as=&quot;geometry&quot; /&gt;&#10;        &lt;/mxCell&gt;&#10;        &lt;mxCell id=&quot;f3dQCy5U1U9z46hcYQQV-17&quot; parent=&quot;1&quot; style=&quot;shape=stencil(fZbdcgIhDIWfZm8zQAg/17Z9j85U606tdqz9e/tmZ0c0uJ47xP0I5JwEBl59bp8/1kNwn6fj4W39M76ctgM/DCGM++36OJ50NPDjwKvN4bh+PR6+9i/z74/n6ctp9H74nlb4nbmSKZeJCu5vngmZ6jzzNAO7cX8FVKEsBuBKrgKg9oAE8gkCbLeUhEoEQKSUDZDLeWYRKIl8MEDRmHwfyBrBG6Amyu4+kDxxMoB3jhwgYu7TVAsVkFcWCs4CTBEoF4RctKeOxHIf8IXYpikHikAIf+MNUW94AGSSaoAoFIE3AlOyeWU+p2E5S9yfQZcQILVuQOwZdJNoS9Ls3wA5u2XZTIHECqeJ9kDpSaauRiNVcAY1QhdBzeLBli5WazpkSsBLV25uRaqWRyFawTQzRRIQYirJzq5atkBqLfouwqUxLBepthWb10vrWZY6UOAeyKCCtDV625mm9gmUC4Wc3VLJMMIE1BsA2FW9JraVlQB7n3c9oMKhCLEvIM1zBPZ25/umNQ1tVEC2G+fFCC8g398O2hNQuQlVu752DBfA+q0ptnqO5JFmeuIuo9DY7KjY71UxdJV4EntifPWorW++R/dC4t7V3DlIB5cHx2bc7eb3yvX//QNFp+bHDT/+Aw==);lineShape=1;strokeColor=default;&quot; value=&quot;&quot; vertex=&quot;1&quot;&gt;&#10;          &lt;mxGeometry height=&quot;4.665236216357698&quot; width=&quot;4.672539772115442&quot; x=&quot;225.31796084247566&quot; y=&quot;117.87531245851915&quot; as=&quot;geometry&quot; /&gt;&#10;        &lt;/mxCell&gt;&#10;        &lt;mxCell id=&quot;f3dQCy5U1U9z46hcYQQV-22&quot; parent=&quot;1&quot; style=&quot;shape=stencil(lVfLctswDPwaXTEkwOc5Tf8jM3FqT9044zh9/H3BauiakLRub7LMFQnsLgBO8vC+f3rbTezeL+fT192Pw/NlP8mnifnwut+dDxd9muRxkoeX03n35Xz6eH2ef789tZXt6dvpe/vCzxlXSVIDsfs1v8jE9c+Lz/Py4+H1ZrlnKmFYz0y5AEChMm4gkRzYgQPVPABCJM/bAPEWEB2FuA0IjnywAAExhLI4UqUMYoiRhC0gpG1AYopiAZwBQL+3OJIDgBw7TTdpTbINKExsiJOulXVAIR538JolQFx1xHEEaN4cAGiW3AgQyHQNNmgfYAw1URnT6jPVAACFovGDUPEAUCmN0lD9CojBO0dujFqw+toWRkxKDSJCgxipjhGauqWpDoDkKQH1KRFljCFFqO9G9ZimlIiRNlz/3hUQoKlVrjIeKVaqCJA6sVeAdBOuAyLVUd9quQjEpIBitJE791tHCkZ9hTLyaKY8SoOVOBR0pWg8mroJ13nwdgf1KDqSSsMtAcjUKgRvj4R4UHm7uAgalD41kCzTioJW5ZhamajiHUwbVWnciaGOjmviQ57OtlY2eaNKtgrADaKMxVU96EDpy8k2CI0KVeNlk7sphv/YR1umAaB1am8BCQDaLJAsgEEQQcixjRp1iCadRZo82EF03DFBJxiDtihLhIPVWA1Wxyzla13YaFoUTIPIOEsUzHSSeyde34D8aGntomjWcPb7OudmQILrM+pNW0ctdNGjde6NcD2PotCiV0Addj26K2O9ZW+kx3q5d5Z1QVi2GCZfKI3Fy1FFlrF14o6HLbWaK1C3sr3AaOxgOCp9Dr8KpxfW9ar4f9eju8v14e9N7OVwPM4Xudv/7c1NX823Pnn8DQ==);lineShape=1;strokeColor=default;&quot; value=&quot;&quot; vertex=&quot;1&quot;&gt;&#10;          &lt;mxGeometry height=&quot;9.086035626228181&quot; width=&quot;33.76791805670746&quot; x=&quot;196.22575645928464&quot; y=&quot;136.22792809440386&quot; as=&quot;geometry&quot; /&gt;&#10;        &lt;/mxCell&gt;&#10;        &lt;mxCell id=&quot;f3dQCy5U1U9z46hcYQQV-23&quot; parent=&quot;1&quot; style=&quot;rounded=1;whiteSpace=wrap;html=1;&quot; value=&quot;&quot; vertex=&quot;1&quot;&gt;&#10;          &lt;mxGeometry height=&quot;70&quot; width=&quot;70&quot; x=&quot;210&quot; y=&quot;136.23&quot; as=&quot;geometry&quot; /&gt;&#10;        &lt;/mxCell&gt;&#10;        &lt;mxCell id=&quot;f3dQCy5U1U9z46hcYQQV-24&quot; parent=&quot;1&quot; style=&quot;shape=stencil(fZbdcgIhDIWfZm8zQAg/17Z9j85U606tdqz9e/tmZ0c0uJ47xP0I5JwEBl59bp8/1kNwn6fj4W39M76ctgM/DCGM++36OJ50NPDjwKvN4bh+PR6+9i/z74/n6ctp9H74nlb4nbmSKZeJCu5vngmZ6jzzNAO7cX8FVKEsBuBKrgKg9oAE8gkCbLeUhEoEQKSUDZDLeWYRKIl8MEDRmHwfyBrBG6Amyu4+kDxxMoB3jhwgYu7TVAsVkFcWCs4CTBEoF4RctKeOxHIf8IXYpikHikAIf+MNUW94AGSSaoAoFIE3AlOyeWU+p2E5S9yfQZcQILVuQOwZdJNoS9Ls3wA5u2XZTIHECqeJ9kDpSaauRiNVcAY1QhdBzeLBli5WazpkSsBLV25uRaqWRyFawTQzRRIQYirJzq5atkBqLfouwqUxLBepthWb10vrWZY6UOAeyKCCtDV625mm9gmUC4Wc3VLJMMIE1BsA2FW9JraVlQB7n3c9oMKhCLEvIM1zBPZ25/umNQ1tVEC2G+fFCC8g398O2hNQuQlVu752DBfA+q0ptnqO5JFmeuIuo9DY7KjY71UxdJV4EntifPWorW++R/dC4t7V3DlIB5cHx2bc7eb3yvX//QNFp+bHDT/+Aw==);lineShape=1;strokeColor=default;&quot; value=&quot;&quot; vertex=&quot;1&quot;&gt;&#10;          &lt;mxGeometry height=&quot;4.665236216357698&quot; width=&quot;4.672539772115442&quot; x=&quot;221.86796084247567&quot; y=&quot;154.10531245851914&quot; as=&quot;geometry&quot; /&gt;&#10;        &lt;/mxCell&gt;&#10;        &lt;mxCell id=&quot;f3dQCy5U1U9z46hcYQQV-25&quot; parent=&quot;1&quot; style=&quot;shape=stencil(fZbdcgIhDIWfZm8zQAg/17Z9j85U606tdqz9e/tmZ0c0uJ47xP0I5JwEBl59bp8/1kNwn6fj4W39M76ctgM/DCGM++36OJ50NPDjwKvN4bh+PR6+9i/z74/n6ctp9H74nlb4nbmSKZeJCu5vngmZ6jzzNAO7cX8FVKEsBuBKrgKg9oAE8gkCbLeUhEoEQKSUDZDLeWYRKIl8MEDRmHwfyBrBG6Amyu4+kDxxMoB3jhwgYu7TVAsVkFcWCs4CTBEoF4RctKeOxHIf8IXYpikHikAIf+MNUW94AGSSaoAoFIE3AlOyeWU+p2E5S9yfQZcQILVuQOwZdJNoS9Ls3wA5u2XZTIHECqeJ9kDpSaauRiNVcAY1QhdBzeLBli5WazpkSsBLV25uRaqWRyFawTQzRRIQYirJzq5atkBqLfouwqUxLBepthWb10vrWZY6UOAeyKCCtDV625mm9gmUC4Wc3VLJMMIE1BsA2FW9JraVlQB7n3c9oMKhCLEvIM1zBPZ25/umNQ1tVEC2G+fFCC8g398O2hNQuQlVu752DBfA+q0ptnqO5JFmeuIuo9DY7KjY71UxdJV4EntifPWorW++R/dC4t7V3DlIB5cHx2bc7eb3yvX//QNFp+bHDT/+Aw==);lineShape=1;strokeColor=default;&quot; value=&quot;&quot; vertex=&quot;1&quot;&gt;&#10;          &lt;mxGeometry height=&quot;4.665236216357698&quot; width=&quot;4.672539772115442&quot; x=&quot;265.31796084247566&quot; y=&quot;154.10531245851914&quot; as=&quot;geometry&quot; /&gt;&#10;        &lt;/mxCell&gt;&#10;        &lt;mxCell id=&quot;f3dQCy5U1U9z46hcYQQV-26&quot; parent=&quot;1&quot; style=&quot;shape=stencil(lVfLctswDPwaXTEkwOc5Tf8jM3FqT9044zh9/H3BauiakLRub7LMFQnsLgBO8vC+f3rbTezeL+fT192Pw/NlP8mnifnwut+dDxd9muRxkoeX03n35Xz6eH2ef789tZXt6dvpe/vCzxlXSVIDsfs1v8jE9c+Lz/Py4+H1ZrlnKmFYz0y5AEChMm4gkRzYgQPVPABCJM/bAPEWEB2FuA0IjnywAAExhLI4UqUMYoiRhC0gpG1AYopiAZwBQL+3OJIDgBw7TTdpTbINKExsiJOulXVAIR538JolQFx1xHEEaN4cAGiW3AgQyHQNNmgfYAw1URnT6jPVAACFovGDUPEAUCmN0lD9CojBO0dujFqw+toWRkxKDSJCgxipjhGauqWpDoDkKQH1KRFljCFFqO9G9ZimlIiRNlz/3hUQoKlVrjIeKVaqCJA6sVeAdBOuAyLVUd9quQjEpIBitJE791tHCkZ9hTLyaKY8SoOVOBR0pWg8mroJ13nwdgf1KDqSSsMtAcjUKgRvj4R4UHm7uAgalD41kCzTioJW5ZhamajiHUwbVWnciaGOjmviQ57OtlY2eaNKtgrADaKMxVU96EDpy8k2CI0KVeNlk7sphv/YR1umAaB1am8BCQDaLJAsgEEQQcixjRp1iCadRZo82EF03DFBJxiDtihLhIPVWA1Wxyzla13YaFoUTIPIOEsUzHSSeyde34D8aGntomjWcPb7OudmQILrM+pNW0ctdNGjde6NcD2PotCiV0Addj26K2O9ZW+kx3q5d5Z1QVi2GCZfKI3Fy1FFlrF14o6HLbWaK1C3sr3AaOxgOCp9Dr8KpxfW9ar4f9eju8v14e9N7OVwPM4Xudv/7c1NX823Pnn8DQ==);lineShape=1;strokeColor=default;&quot; value=&quot;&quot; vertex=&quot;1&quot;&gt;&#10;          &lt;mxGeometry height=&quot;9.086035626228181&quot; width=&quot;33.76791805670746&quot; x=&quot;236.22575645928464&quot; y=&quot;172.45792809440385&quot; as=&quot;geometry&quot; /&gt;&#10;        &lt;/mxCell&gt;&#10;      &lt;/root&gt;&#10;    &lt;/mxGraphModel&gt;&#10;  &lt;/diagram&gt;&#10;&lt;/mxfile&gt;&#10;"><defs/><rect fill="#ffffff" width="100%" height="100%" x="0" y="0" style="fill: light-dark(#ffffff, var(--ge-dark-color, #121212));"/><g><g data-cell-id="0"><g data-cell-id="1"><g data-cell-id="f3dQCy5U1U9z46hcYQQV-1"><g transform="translate(0.5,0.5)"><rect x="0" y="0" width="70" height="70" rx="10.5" ry="10.5" fill="#ffffff" stroke="#000000" pointer-events="all" style="fill: light-dark(#ffffff, var(--ge-dark-color, #121212)); stroke: light-dark(rgb(0, 0, 0), rgb(255, 255, 255));"/></g></g><g data-cell-id="f3dQCy5U1U9z46hcYQQV-16"><g transform="translate(0.5,0.5)"><path d="M 15.97 19.18 L 16.34 19.7 L 16.53 20.31 L 16.51 20.95 L 16.29 21.55 L 15.89 22.04 L 15.35 22.39 L 14.74 22.54 L 14.1 22.49 L 13.51 22.24 L 13.04 21.81 L 12.72 21.25 L 12.6 20.63 L 12.69 20 L 12.97 19.42 L 13.42 18.97 L 14 18.69 L 14.63 18.6 L 15.26 18.72 L 15.81 19.04 L 16.24 19.51 L 16.49 20.1 L 16.54 20.74 L 16.39 21.35 L 16.04 21.89 L 15.55 22.29 L 14.95 22.51 L 14.31 22.53 L 13.7 22.34 L 13.18 21.97 L 13.18 21.97 L 12.73 21.72 L 12.36 21.36 L 12.08 20.93 L 11.91 20.44 L 11.87 19.93 L 11.95 19.42 L 12.14 18.95 L 12.45 18.54 L 12.84 18.21 L 13.31 17.98 L 13.81 17.88 L 14.32 17.89 L 14.82 18.03" fill="#000000" stroke="#000000" stroke-miterlimit="10" pointer-events="all" style="fill: light-dark(rgb(0, 0, 0), rgb(255, 255, 255)); stroke: light-dark(rgb(0, 0, 0), rgb(255, 255, 255));"/></g></g><g data-cell-id="f3dQCy5U1U9z46hcYQQV-17"><g transform="translate(0.5,0.5)"><path d="M 59.42 19.18 L 59.79 19.7 L 59.98 20.31 L 59.96 20.95 L 59.74 21.55 L 59.34 22.04 L 58.8 22.39 L 58.19 22.54 L 57.55 22.49 L 56.96 22.24 L 56.49 21.81 L 56.17 21.25 L 56.05 20.63 L 56.14 20 L 56.42 19.42 L 56.87 18.97 L 57.45 18.69 L 58.08 18.6 L 58.71 18.72 L 59.26 19.04 L 59.69 19.51 L 59.94 20.1 L 59.99 20.74 L 59.84 21.35 L 59.49 21.89 L 59 22.29 L 58.4 22.51 L 57.76 22.53 L 57.15 22.34 L 56.63 21.97 L 56.63 21.97 L 56.18 21.72 L 55.81 21.36 L 55.53 20.93 L 55.36 20.44 L 55.32 19.93 L 55.4 19.42 L 55.59 18.95 L 55.9 18.54 L 56.29 18.21 L 56.76 17.98 L 57.26 17.88 L 57.77 17.89 L 58.27 18.03" fill="#000000" stroke="#000000" stroke-miterlimit="10" pointer-events="all" style="fill: light-dark(rgb(0, 0, 0), rgb(255, 255, 255)); stroke: light-dark(rgb(0, 0, 0), rgb(255, 255, 255));"/></g></g><g data-cell-id="f3dQCy5U1U9z46hcYQQV-22"><g transform="translate(0.5,0.5)"><path d="M 29.39 36.89 L 30.56 38.3 L 32.59 39.42 L 34.66 40.33 L 37.02 40.81 L 39.78 40.81 L 42.76 40.75 L 44.91 40.72 L 47.34 40.7 L 49.68 40.69 L 51.82 40.37 L 54 39.26 L 56.04 38.02 L 56.7 37.62 L 57.46 37.45 L 58.23 37.53 L 58.94 37.86 L 59.5 38.39 L 59.87 39.08 L 59.99 39.84 L 59.87 40.61 L 59.51 41.3 L 58.94 41.83 L 58.24 42.16 L 57.47 42.24 L 56.71 42.08 L 56.04 41.68 L 55.54 41.09 L 55.25 40.37 L 55.21 39.59 L 55.41 38.84 L 55.85 38.2 L 56.46 37.73 L 57.2 37.48 L 57.98 37.48 L 58.71 37.72 L 59.34 38.19 L 59.77 38.84 L 59.98 39.58 L 59.94 40.36 L 59.65 41.08 L 59.15 41.67 L 59.15 41.67 L 54.21 44.41 L 51.98 45.16 L 49.68 45.31 L 47.34 45.3 L 44.9 45.28 L 42.76 45.25 L 40.75 45.21 L 38.71 45.15 L 36.5 45.01 L 34.09 44.43 L 31.94 43.46 L 29.77 42.34 L 27.74 40.58 L 26.61 39.11 L 26.39 38.75 L 26.26 38.34 L 26.23 37.91 L 26.3 37.49 L 26.47 37.1 L 26.73 36.76 L 27.07 36.49 L 27.45 36.31 L 27.87 36.23 L 28.3 36.25 L 28.71 36.37 L 29.08 36.59 L 29.39 36.89 L 29.39 36.89" fill="#000000" stroke="#000000" stroke-miterlimit="10" pointer-events="all" style="fill: light-dark(rgb(0, 0, 0), rgb(255, 255, 255)); stroke: light-dark(rgb(0, 0, 0), rgb(255, 255, 255));"/></g></g><g data-cell-id="f3dQCy5U1U9z46hcYQQV-23"><g transform="translate(0.5,0.5)"><rect x="40" y="36.23" width="70" height="70" rx="10.5" ry="10.5" fill="#ffffff" stroke="#000000" pointer-events="all" style="fill: light-dark(#ffffff, var(--ge-dark-color, #121212)); stroke: light-dark(rgb(0, 0, 0), rgb(255, 255, 255));"/></g></g><g data-cell-id="f3dQCy5U1U9z46hcYQQV-24"><g transform="translate(0.5,0.5)"><path d="M 55.97 55.41 L 56.34 55.93 L 56.53 56.54 L 56.51 57.18 L 56.29 57.78 L 55.89 58.27 L 55.35 58.62 L 54.74 58.77 L 54.1 58.72 L 53.51 58.47 L 53.04 58.04 L 52.72 57.48 L 52.6 56.86 L 52.69 56.23 L 52.97 55.65 L 53.42 55.2 L 54 54.92 L 54.63 54.83 L 55.26 54.95 L 55.81 55.27 L 56.24 55.74 L 56.49 56.33 L 56.54 56.97 L 56.39 57.58 L 56.04 58.12 L 55.55 58.52 L 54.95 58.74 L 54.31 58.76 L 53.7 58.57 L 53.18 58.2 L 53.18 58.2 L 52.73 57.95 L 52.36 57.59 L 52.08 57.16 L 51.91 56.67 L 51.87 56.16 L 51.95 55.65 L 52.14 55.18 L 52.45 54.77 L 52.84 54.44 L 53.31 54.21 L 53.81 54.11 L 54.32 54.12 L 54.82 54.26" fill="#000000" stroke="#000000" stroke-miterlimit="10" pointer-events="all" style="fill: light-dark(rgb(0, 0, 0), rgb(255, 255, 255)); stroke: light-dark(rgb(0, 0, 0), rgb(255, 255, 255));"/></g></g><g data-cell-id="f3dQCy5U1U9z46hcYQQV-25"><g transform="translate(0.5,0.5)"><path d="M 99.42 55.41 L 99.79 55.93 L 99.98 56.54 L 99.96 57.18 L 99.74 57.78 L 99.34 58.27 L 98.8 58.62 L 98.19 58.77 L 97.55 58.72 L 96.96 58.47 L 96.49 58.04 L 96.17 57.48 L 96.05 56.86 L 96.14 56.23 L 96.42 55.65 L 96.87 55.2 L 97.45 54.92 L 98.08 54.83 L 98.71 54.95 L 99.26 55.27 L 99.69 55.74 L 99.94 56.33 L 99.99 56.97 L 99.84 57.58 L 99.49 58.12 L 99 58.52 L 98.4 58.74 L 97.76 58.76 L 97.15 58.57 L 96.63 58.2 L 96.63 58.2 L 96.18 57.95 L 95.81 57.59 L 95.53 57.16 L 95.36 56.67 L 95.32 56.16 L 95.4 55.65 L 95.59 55.18 L 95.9 54.77 L 96.29 54.44 L 96.76 54.21 L 97.26 54.11 L 97.77 54.12 L 98.27 54.26" fill="#000000" stroke="#000000" stroke-miterlimit="10" pointer-events="all" style="fill: light-dark(rgb(0, 0, 0), rgb(255, 255, 255)); stroke: light-dark(rgb(0, 0, 0), rgb(255, 255, 255));"/></g></g><g data-cell-id="f3dQCy5U1U9z46hcYQQV-26"><g transform="translate(0.5,0.5)"><path d="M 69.39 73.12 L 70.56 74.53 L 72.59 75.65 L 74.66 76.56 L 77.02 77.04 L 79.78 77.04 L 82.76 76.98 L 84.91 76.95 L 87.34 76.93 L 89.68 76.92 L 91.82 76.6 L 94 75.49 L 96.04 74.25 L 96.7 73.85 L 97.46 73.68 L 98.23 73.76 L 98.94 74.09 L 99.5 74.62 L 99.87 75.31 L 99.99 76.07 L 99.87 76.84 L 99.51 77.53 L 98.94 78.06 L 98.24 78.39 L 97.47 78.47 L 96.71 78.31 L 96.04 77.91 L 95.54 77.32 L 95.25 76.6 L 95.21 75.82 L 95.41 75.07 L 95.85 74.43 L 96.46 73.96 L 97.2 73.71 L 97.98 73.71 L 98.71 73.95 L 99.34 74.42 L 99.77 75.07 L 99.98 75.81 L 99.94 76.59 L 99.65 77.31 L 99.15 77.9 L 99.15 77.9 L 94.21 80.64 L 91.98 81.39 L 89.68 81.54 L 87.34 81.53 L 84.9 81.51 L 82.76 81.48 L 80.75 81.44 L 78.71 81.38 L 76.5 81.24 L 74.09 80.66 L 71.94 79.69 L 69.77 78.57 L 67.74 76.81 L 66.61 75.34 L 66.39 74.98 L 66.26 74.57 L 66.23 74.14 L 66.3 73.72 L 66.47 73.33 L 66.73 72.99 L 67.07 72.72 L 67.45 72.54 L 67.87 72.46 L 68.3 72.48 L 68.71 72.6 L 69.08 72.82 L 69.39 73.12 L 69.39 73.12" fill="#000000" stroke="#000000" stroke-miterlimit="10" pointer-events="all" style="fill: light-dark(rgb(0, 0, 0), rgb(255, 255, 255)); stroke: light-dark(rgb(0, 0, 0), rgb(255, 255, 255));"/></g></g></g></g></g></svg>